# xmcd CD database file
#
# Track frame offsets:
#	150
#	18167
#	35909
#	50336
#	67043
#	82580
#	102973
#	121300
#	135824
#	149893
#	166328
#	188180
#
# Disc length: 2769 seconds
#
# Revision: 4
# Processed by: cddbd v1.5.2PL0 Copyright (c) Steve Scherf et al.
# Submitted via: CDex 1.51
#
DISCID=9f0acf0c
DTITLE=Tom Waits - Closing Time
DYEAR=1973
DGENRE=Rock
TTITLE0=Ol' 55
TTITLE1=I Hope That I Don't Fall In Love With You
TTITLE2=Virginia Avenue
TTITLE3=Old Shoes (& Picture Postcards)
TTITLE4=Midnight Lullaby
TTITLE5=Martha
TTITLE6=Rosie
TTITLE7=Lonely
TTITLE8=Ice Cream Man
TTITLE9=Little Trip To Heaven (On The Wings Of Your Love)
TTITLE10=Grapefruit Moon
TTITLE11=Closing Time
EXTD=YEAR: 1973
EXTT0=
EXTT1=
EXTT2=
EXTT3=
EXTT4=
EXTT5=
EXTT6=
EXTT7=
EXTT8=
EXTT9=
EXTT10=
EXTT11=
PLAYORDER=
